<svg xmlns="http://www.w3.org/2000/svg" width="100" height="100" viewBox="0 0 100 100">
  <defs>
    <style>
      .cls-1 {
        fill: #ebba16;
      }

      .cls-2 {
        fill: #c99a17;
      }

      .cls-3 {
        fill: #ffd664;
      }

      .cls-4 {
        fill: #a37913;
        fill-rule: evenodd;
      }
    </style>
  </defs>
  <circle id="Ellipse_1_copy" data-name="Ellipse 1 copy" class="cls-1" cx="50" cy="50" r="49.906"/>
  <circle id="Ellipse_1_copy_3" data-name="Ellipse 1 copy 3" class="cls-2" cx="49.828" cy="50.172" r="42.391"/>
  <circle class="cls-3" cx="50" cy="50" r="33.75"/>
  <path id="Ellipse_1_copy_2" data-name="Ellipse 1 copy 2" class="cls-4" d="M94.053,43.778a44.243,44.243,0,0,0-7.788-19.553l3.495-3.491a49.034,49.034,0,0,1,9.228,23.044H94.053ZM57.565,6.156V1.24a49.171,49.171,0,0,1,22.888,9.932l-3.465,3.461A44.271,44.271,0,0,0,57.565,6.156Zm-33.638,7.8-3.486-3.482A49.164,49.164,0,0,1,44.215,1.012V5.886A44.244,44.244,0,0,0,23.927,13.953ZM5.947,43.778H1.013a49.044,49.044,0,0,1,9.92-23.947L14.41,23.3A44.259,44.259,0,0,0,5.947,43.778ZM14.6,76.947l-3.475,3.471a49.054,49.054,0,0,1-10-23.307H6.081A44.268,44.268,0,0,0,14.6,76.947ZM44.215,94.114v4.874A49.152,49.152,0,0,1,20.7,89.714l3.483-3.479A44.242,44.242,0,0,0,44.215,94.114Zm32.52-8.555L80.2,89.023A49.168,49.168,0,0,1,57.565,98.76V93.844A44.268,44.268,0,0,0,76.736,85.559ZM93.92,57.112h4.954a49.052,49.052,0,0,1-9.3,22.414l-3.5-3.493A44.249,44.249,0,0,0,93.92,57.112Z"/>
  <path class="cls-4" d="M70.648,70.082q-2.166,1.956-6.467,1.955a9.83,9.83,0,0,1-5.23-1.27,9,9,0,0,1-2.993-2.745l0.034,3.363a0.364,0.364,0,0,1-.413.412H53.652a0.38,0.38,0,0,1-.447-0.412V63.357a0.4,0.4,0,0,1,.447-0.446H55.82a0.381,0.381,0,0,1,.413.446v0.72a3.307,3.307,0,0,0,.792,1.733,10.6,10.6,0,0,0,1.581,1.767,6.913,6.913,0,0,0,2.117,1.185,8.112,8.112,0,0,0,2.872.5,6.89,6.89,0,0,0,4.146-1.1,3.575,3.575,0,0,0,1.5-3.054,2.587,2.587,0,0,0-.842-1.939,6.051,6.051,0,0,0-2.185-1.287c-0.553-.2-1.156-0.384-1.783-0.565l1.392-2.635c0.29,0.087.581,0.158,0.871,0.249a18.038,18.038,0,0,1,3.029,1.235,6.1,6.1,0,0,1,2.236,1.974,5.115,5.115,0,0,1,.86,2.968A6.407,6.407,0,0,1,70.648,70.082ZM71.13,55.43H68.962a0.364,0.364,0,0,1-.412-0.412V54.057a4,4,0,0,0-1.583-2.849,6.683,6.683,0,0,0-4.645-1.44,5.822,5.822,0,0,0-3.664,1.08,3.352,3.352,0,0,0-1.393,2.763,2.8,2.8,0,0,0,.86,2.057,6.172,6.172,0,0,0,2.236,1.374c0.221,0.082.464,0.159,0.7,0.238l2.24-4.24h3.1L60.864,63.514h-3.1l1.893-3.584a17.193,17.193,0,0,1-2.669-1.154A6,6,0,0,1,54.8,56.717a5.172,5.172,0,0,1-.606-1.365,0.414,0.414,0,0,1-.208.069H46.042a0.365,0.365,0,0,1-.413-0.412v-1.75a0.365,0.365,0,0,1,.413-0.412h2.306V35.758H48.314l-6.538,16.2a1.627,1.627,0,0,1-3.027,0l-6.538-16.2H32.143V52.847h2.3a0.381,0.381,0,0,1,.448.412v1.75a0.381,0.381,0,0,1-.448.412H26.534a0.38,0.38,0,0,1-.447-0.412v-1.75a0.38,0.38,0,0,1,.447-0.412H29.15V33.356H26.534a0.38,0.38,0,0,1-.447-0.412V31.195a0.38,0.38,0,0,1,.447-0.412h5.3A1.622,1.622,0,0,1,33.45,31.95L38.576,44.3l1.617,4.324h0.138q0.964-2.677,1.583-4.255l5.16-12.421a1.644,1.644,0,0,1,1.651-1.167H53.99a0.364,0.364,0,0,1,.413.412v1.749a0.364,0.364,0,0,1-.413.412H51.34V52.847H53.99a0.4,0.4,0,0,1,.046.015,5.98,5.98,0,0,1,2.11-4.021,8.662,8.662,0,0,1,5.866-1.888q4.644,0,6.812,2.71l-0.068-2.127a0.38,0.38,0,0,1,.447-0.411H71.13a0.364,0.364,0,0,1,.413.411v7.481A0.365,0.365,0,0,1,71.13,55.43Z"/>
</svg>
