<svg xmlns="http://www.w3.org/2000/svg" width="102.411" height="102.4" viewBox="0 0 102.411 102.4"><path id="Shape_1" data-name="Shape 1" d="M1107.277,3684.181a5.123,5.123,0,0,1-5.106-4.717l-2.228-28.043-1.231-12.027-7.2,3.349a11.119,11.119,0,0,0-7.28.478,5.1,5.1,0,0,1-1.645-.272l-12.757-4.322-1.3,12.679-2.239,28.16a5.118,5.118,0,0,1-5.1,4.715h-10.242a5.121,5.121,0,0,1-5.1-4.715l-1.866-23.446h-3.272a5.117,5.117,0,0,1-5.038-6.035l5.12-28.16a5.121,5.121,0,0,1,5.038-4.2h20.482a5.126,5.126,0,0,1,2.54.672l17.887,10.221,12.218-9.772a5.124,5.124,0,0,1,3.2-1.121h20.482a5.121,5.121,0,0,1,5.038,4.2l4.542,24.979h.661a5.12,5.12,0,0,1,5.12,5.12V3663.7a5.12,5.12,0,0,1-5.12,5.12h-9.41l-.847,10.646a5.121,5.121,0,0,1-5.1,4.715Zm-2.239-33.281,2.239,28.16h10.241l.815-10.24h-1.838a5.12,5.12,0,0,1-5.12-5.12v-11.777a5.12,5.12,0,0,1,5.12-5.12h10.521l-4.376-24.064h-7.682v15.574a2.56,2.56,0,1,1-5.12,0v-15.574h-7.682l-12.8,10.24v5.12l13.72-6.383Zm-64.328,0h8l2.239,28.16h10.241l2.239-28.16,1.963-19.183,18.84,6.383v-5.12l-17.922-10.24h-7.681v15.574a2.56,2.56,0,1,1-5.12,0v-15.574h-7.681Zm75.784,12.8h16.386v-11.777h-16.386Zm-19.458-66.56a15.361,15.361,0,1,1,15.361,15.36A15.377,15.377,0,0,1,1097.036,3597.141Zm5.12,0A10.241,10.241,0,1,0,1112.4,3586.9,10.24,10.24,0,0,0,1102.156,3597.141Zm-61.446,0a15.361,15.361,0,1,1,15.361,15.36A15.377,15.377,0,0,1,1040.71,3597.141Zm5.12,0a10.241,10.241,0,1,0,10.241-10.241A10.24,10.24,0,0,0,1045.83,3597.141Z" transform="translate(-1035.589 -3581.781)" fill="#2a3045"></path></svg>