<svg id="Слой_1" data-name="Слой 1" xmlns="http://www.w3.org/2000/svg" viewBox="0 0 39 40"><defs><style>.cls-1{fill:#fff;}.cls-2{fill:#4ece5f;fill-rule:evenodd;}</style></defs><rect class="cls-1" x="3.19" y="3.19" width="31.05" height="29.28"/><path class="cls-2" d="M0,0H39V32.5A3.67,3.67,0,0,1,35.2,36H26.9c.1,0-7.4,3.9-7.4,4,0-.1-7.2-4-7.4-4H3.8A3.67,3.67,0,0,1,0,32.5ZM32.65,28.41H25a.35.35,0,0,1-.32-.33V26.61a.34.34,0,0,1,.32-.32h2.45v-15h0L20.89,25.47a1.44,1.44,0,0,1-2.12.65c-.33-.16-.49-.49-.66-.65L11.74,11.26h0V26.12H14c.16,0,.33,0,.49.33v1.63a.35.35,0,0,1-.33.33h-8c-.16,0-.33,0-.49-.33V26.61A.35.35,0,0,1,6,26.29H8.64V9.14H6.19c-.16,0-.33,0-.49-.33V7.34C5.86,7.18,6,7,6.19,7h5.06a1.81,1.81,0,0,1,1.64,1l4.9,10.78,1.63,3.76h.16c.66-1.63,1.15-2.78,1.47-3.76L26,8a1.46,1.46,0,0,1,1.64-1h5.06a.36.36,0,0,1,.33.33V9a.35.35,0,0,1-.33.33H29.87v17h2.62a.34.34,0,0,1,.32.32v1.64c.33,0,.17.16-.16.16h0" transform="translate(0 0)"/></svg>