<svg width="49" height="48" viewBox="0 0 49 48" fill="none" xmlns="http://www.w3.org/2000/svg">
<g clip-path="url(#clip0)">
<path d="M0.285767 0V48H48.2858V0H0.285767ZM26.4072 37.4357C26.4072 42.1071 23.6643 44.2393 19.6679 44.2393C16.0572 44.2393 13.9679 42.375 12.8965 40.1143L16.5715 37.8964C17.2786 39.15 17.9215 40.2107 19.4751 40.2107C20.9536 40.2107 21.8965 39.6321 21.8965 37.3714V22.0393H26.4072V37.4357ZM37.0786 44.2393C32.8893 44.2393 30.1786 42.2464 28.8608 39.6321L32.5358 37.5107C33.5001 39.0857 34.7643 40.2536 36.9822 40.2536C38.8465 40.2536 40.0465 39.3214 40.0465 38.025C40.0465 36.4821 38.8251 35.9357 36.7572 35.025L35.6322 34.5429C32.3751 33.1607 30.2215 31.4143 30.2215 27.7393C30.2215 24.3536 32.8036 21.7821 36.8215 21.7821C39.6929 21.7821 41.75 22.7786 43.2286 25.3929L39.7143 27.6429C38.9429 26.2607 38.1072 25.7143 36.8108 25.7143C35.4929 25.7143 34.6572 26.55 34.6572 27.6429C34.6572 28.9929 35.4929 29.5393 37.4322 30.3857L38.5572 30.8679C42.3929 32.5071 44.5465 34.1893 44.5465 37.9607C44.5465 42.0107 41.3536 44.2393 37.0786 44.2393Z" fill="#BEC4C9"/>
</g>
<defs>
<clipPath id="clip0">
<rect width="48" height="48" fill="white" transform="translate(0.285767)"/>
</clipPath>
</defs>
</svg>
