<svg width="43" height="48" viewBox="0 0 43 48" fill="none" xmlns="http://www.w3.org/2000/svg">
<g clip-path="url(#clip0)">
<path d="M21.6191 48C20.981 48 20.3334 47.8286 19.7715 47.5048L13.8953 44.0286C13.0191 43.5333 13.4477 43.3619 13.7334 43.2667C14.9048 42.8571 15.1429 42.7714 16.3905 42.0571C16.5238 41.981 16.6953 42.0095 16.8286 42.0952L21.3429 44.7714C21.5048 44.8667 21.7334 44.8667 21.8858 44.7714L39.4762 34.619C39.6381 34.5238 39.7429 34.3333 39.7429 34.1429V13.8381C39.7429 13.6381 39.6381 13.4571 39.4667 13.3524L21.8858 3.20952C21.7238 3.11428 21.5048 3.11428 21.3429 3.20952L3.77146 13.3619C3.60004 13.4571 3.49527 13.6476 3.49527 13.8476V34.1429C3.49527 34.3333 3.60004 34.5238 3.77146 34.6095L8.59051 37.3905C11.2096 38.6952 12.8096 37.1619 12.8096 35.6095V15.5714C12.8096 15.2857 13.0381 15.0667 13.3238 15.0667H15.5524C15.8286 15.0667 16.0667 15.2857 16.0667 15.5714V35.619C16.0667 39.1048 14.1619 41.1048 10.8572 41.1048C9.83813 41.1048 9.03813 41.1048 6.80956 40L2.20004 37.3429C1.05718 36.6857 0.352417 35.4571 0.352417 34.1333V13.8381C0.352417 12.5238 1.05718 11.2857 2.20004 10.6286L19.7715 0.476189C20.8858 -0.152382 22.3619 -0.152382 23.4667 0.476189L41.0572 10.6381C42.2 11.2952 42.9048 12.5238 42.9048 13.8476V34.1429C42.9048 35.4571 42.2 36.6857 41.0572 37.3524L23.4667 47.5048C22.9048 47.8286 22.2667 48 21.6191 48ZM35.8191 27.9905C35.8191 24.1905 33.2477 23.181 27.8477 22.4667C22.381 21.7429 21.8286 21.3714 21.8286 20.0952C21.8286 19.0381 22.2953 17.6286 26.3429 17.6286C29.9524 17.6286 31.2858 18.4095 31.8381 20.8476C31.8858 21.0762 32.0953 21.2476 32.3334 21.2476H34.6191C34.7619 21.2476 34.8953 21.1905 34.9905 21.0857C35.0858 20.981 35.1334 20.8381 35.1238 20.6952C34.7715 16.4952 31.981 14.5429 26.3429 14.5429C21.3238 14.5429 18.3334 16.6571 18.3334 20.2095C18.3334 24.0571 21.3143 25.1238 26.1238 25.6C31.8858 26.1619 32.3334 27.0095 32.3334 28.1429C32.3334 30.1048 30.7524 30.9429 27.0477 30.9429C22.3905 30.9429 21.3715 29.7714 21.0286 27.4571C20.9905 27.2095 20.781 27.0286 20.5238 27.0286H18.2477C17.9619 27.0286 17.7429 27.2571 17.7429 27.5333C17.7429 30.4952 19.3524 34.0286 27.0572 34.0286C32.6191 34.019 35.8191 31.819 35.8191 27.9905Z" fill="#BEC4C9"/>
</g>
<defs>
<clipPath id="clip0">
<rect width="42.6667" height="48" fill="white" transform="translate(0.285767)"/>
</clipPath>
</defs>
</svg>
