<svg width="49" height="48" viewBox="0 0 49 48" fill="none" xmlns="http://www.w3.org/2000/svg">
<g clip-path="url(#clip0)">
<path d="M47.8645 18.08C47.0431 14.784 45.4858 12.2987 42.1685 12.2987H37.8911V17.3547C37.8911 21.28 34.5631 24.5867 30.7658 24.5867H19.3738C16.2591 24.5867 13.6778 27.2534 13.6778 30.3787V41.2374C13.6778 44.3307 16.3658 46.144 19.3738 47.0294C22.9791 48.0854 26.4458 48.2774 30.7658 47.0294C33.6351 46.1974 36.4618 44.5227 36.4618 41.2374V36.896H25.0805V35.4454H42.1685C45.4858 35.4454 46.7125 33.1307 47.8645 29.664C49.0591 26.0907 49.0058 22.656 47.8645 18.08ZM31.4805 39.7867C32.6645 39.7867 33.6245 40.7574 33.6245 41.952C33.6245 43.1574 32.6645 44.128 31.4805 44.128C30.3071 44.128 29.3365 43.1467 29.3365 41.952C29.3471 40.7467 30.3071 39.7867 31.4805 39.7867ZM18.8511 23.1574H30.2431C33.4111 23.1574 35.9391 20.544 35.9391 17.3654V6.49604C35.9391 3.40271 33.3365 1.08804 30.2431 0.565372C26.4245 -0.0639615 22.2751 -0.0319613 18.8511 0.576039C14.0298 1.42937 13.1551 3.21071 13.1551 6.50671V10.848H24.5578V12.2987H8.87781C5.56047 12.2987 2.65914 14.2934 1.75247 18.08C0.707139 22.4214 0.664473 25.1307 1.75247 29.664C2.56314 33.0347 4.49381 35.4454 7.81114 35.4454H11.7258V30.24C11.7258 26.4747 14.9791 23.1574 18.8511 23.1574ZM18.1365 7.94671C16.9525 7.94671 15.9925 6.97604 15.9925 5.78137C16.0031 4.57604 16.9525 3.60537 18.1365 3.60537C19.3098 3.60537 20.2805 4.58671 20.2805 5.78137C20.2805 6.97604 19.3205 7.94671 18.1365 7.94671Z" fill="#BEC4C9"/>
</g>
<defs>
<clipPath id="clip0">
<rect width="47.8934" height="48" fill="white" transform="translate(0.952393)"/>
</clipPath>
</defs>
</svg>
