<svg width="56" height="48" viewBox="0 0 56 48" fill="none" xmlns="http://www.w3.org/2000/svg">
<g clip-path="url(#clip0)">
<path d="M45.5532 15.5225C44.9759 15.3301 44.3986 15.1483 43.8213 14.9773C43.9175 14.5817 44.0031 14.1862 44.0886 13.7907C45.4035 7.41916 44.5376 2.29845 41.6191 0.60936C38.8075 -1.00489 34.2213 0.673503 29.5817 4.71448C29.122 5.11003 28.673 5.52696 28.2454 5.94388C27.9567 5.66593 27.6574 5.38798 27.3581 5.12072C22.4939 0.801788 17.6191 -1.01558 14.7006 0.684193C11.8997 2.30914 11.0659 7.13052 12.2418 13.1599C12.3594 13.7586 12.4877 14.3466 12.6374 14.9452C11.9532 15.1376 11.2797 15.3515 10.6489 15.576C4.94026 17.5537 0.845825 20.6753 0.845825 23.9038C0.845825 27.2392 5.20752 30.5853 11.1407 32.6165C11.6218 32.7768 12.1028 32.9372 12.5946 33.0762C12.4342 33.7176 12.2953 34.3483 12.167 35.0005C11.0445 40.9336 11.9211 45.6374 14.722 47.2517C17.6084 48.9194 22.4619 47.2089 27.187 43.0717C27.5612 42.7403 27.9354 42.3982 28.3095 42.0348C28.7799 42.4944 29.2717 42.9327 29.7634 43.3604C34.3389 47.2944 38.861 48.8873 41.6512 47.2731C44.5376 45.6054 45.4783 40.5488 44.2596 34.3911C44.1634 33.9207 44.0565 33.4397 43.9389 32.9479C44.281 32.8517 44.6124 32.7448 44.9438 32.6379C51.1122 30.596 55.5808 27.2927 55.5808 23.9038C55.5808 20.6646 51.3688 17.5216 45.5532 15.5225ZM31.089 6.44633C35.0659 2.98263 38.7754 1.62495 40.4645 2.59778C42.2712 3.63475 42.9661 7.8254 41.8329 13.331C41.7581 13.6944 41.6832 14.0472 41.587 14.4C39.2138 13.8655 36.8084 13.4806 34.3924 13.2668C33.0026 11.2784 31.4846 9.37551 29.8383 7.59021C30.2552 7.19466 30.6614 6.8205 31.089 6.44633ZM18.7202 29.4521C19.2654 30.3822 19.8213 31.3123 20.4093 32.2209C18.7416 32.0392 17.0846 31.7719 15.4489 31.4192C15.9193 29.8797 16.5073 28.2869 17.1915 26.6619C17.6832 27.6027 18.1857 28.5327 18.7202 29.4521ZM15.481 16.5915C17.0204 16.2494 18.6561 15.9715 20.3558 15.7577C19.7893 16.645 19.2334 17.5537 18.7095 18.4731C18.1857 19.3817 17.6726 20.3118 17.1915 21.2526C16.518 19.6597 15.9514 18.0989 15.481 16.5915ZM18.4102 23.9572C19.1158 22.482 19.8855 21.0388 20.6979 19.6169C21.5104 18.1951 22.387 16.816 23.3064 15.4584C24.91 15.3408 26.5456 15.2766 28.2133 15.2766C29.881 15.2766 31.5273 15.3408 33.1202 15.4584C34.0289 16.8054 34.8948 18.1844 35.718 19.5956C36.5411 21.0067 37.3109 22.4499 38.0378 23.9145C37.3215 25.3898 36.5518 26.8437 35.7287 28.2762C34.9162 29.698 34.0503 31.0771 33.1416 32.4454C31.5487 32.563 29.8917 32.6165 28.2133 32.6165C26.5349 32.6165 24.91 32.563 23.3385 32.4668C22.4084 31.1091 21.5318 29.7194 20.7086 28.2976C19.8855 26.8757 19.1264 25.4325 18.4102 23.9572ZM37.7171 29.4307C38.2623 28.49 38.7754 27.5385 39.2779 26.5764C39.9621 28.1265 40.5607 29.698 41.0846 31.3123C39.4276 31.6864 37.7492 31.9751 36.0601 32.1675C36.6374 31.2695 37.1826 30.3501 37.7171 29.4307ZM39.2565 21.2526C38.7541 20.3118 38.2409 19.3711 37.7064 18.4517C37.1826 17.543 36.6374 16.645 36.0708 15.7577C37.7919 15.9715 39.4383 16.2601 40.9777 16.6129C40.4859 18.1951 39.9086 19.7345 39.2565 21.2526ZM28.2347 9.22584C29.3572 10.4446 30.4155 11.7274 31.3991 13.053C29.2823 12.9568 27.155 12.9568 25.0383 13.053C26.0859 11.6739 27.1656 10.3911 28.2347 9.22584ZM15.8338 2.67261C17.6298 1.62495 21.6173 3.12161 25.8187 6.84188C26.0859 7.07707 26.3532 7.33364 26.6311 7.59021C24.9741 9.37551 23.4454 11.2784 22.0449 13.2668C19.6289 13.4806 17.2342 13.8548 14.861 14.3786C14.722 13.8334 14.6044 13.2775 14.4868 12.7216C13.4819 7.54744 14.1447 3.64544 15.8338 2.67261ZM13.2146 30.8526C12.7656 30.7243 12.3273 30.5853 11.889 30.4356C9.61197 29.7194 7.02489 28.5862 5.15407 27.1002C4.07433 26.3519 3.34738 25.1973 3.14427 23.9038C3.14427 21.9474 6.52244 19.4459 11.3973 17.7461C12.0066 17.5323 12.6267 17.3399 13.2467 17.1581C13.9737 19.478 14.8503 21.755 15.8659 23.9572C14.8396 26.1915 13.9523 28.5007 13.2146 30.8526ZM25.6797 41.3292C23.9158 42.9434 21.8739 44.2263 19.6503 45.1029C18.4636 45.6695 17.0953 45.7229 15.8766 45.2419C14.1768 44.2584 13.4712 40.4846 14.4334 35.4067C14.5509 34.808 14.6792 34.2094 14.8289 33.6214C17.2236 34.1345 19.6396 34.4873 22.0877 34.669C23.4988 36.6682 25.0489 38.5817 26.706 40.3777C26.3639 40.7091 26.0218 41.0299 25.6797 41.3292ZM28.2988 38.7314C27.2084 37.5555 26.118 36.2512 25.0596 34.8508C26.0859 34.8935 27.1443 34.9149 28.2133 34.9149C29.3144 34.9149 30.3942 34.8935 31.4632 34.8401C30.4797 36.1978 29.4213 37.4913 28.2988 38.7314ZM42.2712 41.9385C42.175 43.2428 41.5336 44.4615 40.5073 45.2846C38.8075 46.2682 35.1835 44.9853 31.2708 41.6285C30.8218 41.2437 30.3728 40.8267 29.9131 40.3991C31.5487 38.5924 33.0561 36.6788 34.4244 34.669C36.8726 34.4659 39.31 34.0918 41.7153 33.5466C41.8222 33.9849 41.9184 34.4232 42.004 34.8508C42.5278 37.1599 42.6133 39.5653 42.2712 41.9385ZM44.2169 30.4463C43.9175 30.5425 43.6182 30.6388 43.3082 30.7243C42.5599 28.3938 41.6405 26.1167 40.5821 23.9038C41.6084 21.7229 42.4743 19.478 43.2013 17.1795C43.7572 17.3399 44.2917 17.5109 44.8048 17.682C49.7866 19.3924 53.2823 21.9368 53.2823 23.8824C53.2823 25.9777 49.5514 28.6824 44.2169 30.4463ZM28.2133 28.8428C30.918 28.8428 33.1095 26.6512 33.1095 23.9466C33.1095 21.2419 30.918 19.0503 28.2133 19.0503C25.5086 19.0503 23.3171 21.2419 23.3171 23.9466C23.3171 26.6512 25.5086 28.8428 28.2133 28.8428Z" fill="#BEC4C9"/>
</g>
<defs>
<clipPath id="clip0">
<rect width="54.735" height="48" fill="white" transform="translate(0.845825)"/>
</clipPath>
</defs>
</svg>
